PathFileType   4   (X/Y/Z)																																																																																																																							
DataRate  CameraRate  NumFrames  NumMarkers  Units  OrigDataRate  OrigDataStartFrame  OrigNumFrames  																																																																																																																							
  120.0      120.0        11         39         mm      120.0          96        109																																																																																																																							
Frame#      Time	midhip		hip_r		hip_l		knee_r		knee_l		ankle_r		ankle_l		midasis		asis_r		asis_l		psis_r		psis_l		epicondLat_r		epicondLat_l		epicondMed_r		epicondMed_l		malleolusLat_r		malleolusLat_l		malleolusMedv_r		malleolusMedv_l		heel_r		heel_l		sternalnotch		xyphoidprocess		neck		subclavicle_r		subclavicle_l		toe_r		toe_l		thighwand_r		thighwand_l		upperleg1_r		upperleg1_l		upperleg2_r		upperleg2_l		shankwand_r		shankwand_l		lowerleg1_r		lowerleg1_l		
              X1          Y1          Z1          X2          Y2          Z2          X3          Y3          Z3          X4          Y4          Z4          X5          Y5          Z5          X6          Y6          Z6          X7          Y7          Z7          X8          Y8          Z8          X9          Y9          Z9          X10          Y10          Z10          X11          Y11          Z11          X12          Y12          Z12          X13          Y13          Z13          X14          Y14          Z14          X15          Y15          Z15          X16          Y16          Z16          X17          Y17          Z17          X18          Y18          Z18          X19          Y19          Z19          X20          Y20          Z20          X21          Y21          Z21          X22          Y22          Z22          X23          Y23          Z23          X24          Y24          Z24          X25          Y25          Z25          X26          Y26          Z26          X27          Y27          Z27          X28          Y28          Z28          X29          Y29          Z29          X30          Y30          Z30          X31          Y31          Z31          X32          Y32          Z32          X33          Y33          Z33          X34          Y34          Z34          X35          Y35          Z35          X36          Y36          Z36          X37          Y37          Z37          X38          Y38          Z38          X39          Y39          Z39          																																																																																																																							

	96	1.81667	1472.198	882.034	-254.302	1468.345	880.78	-179.197	1476.05	883.288	-329.408	1443.617	470.27	-134.586	1434.128	460.26	-356.605	1406.123	69.433	-128.35	1382.915	71.356	-365.098	1565.408	961.348	-248.197	1559.319	959.366	-129.498	1571.496	963.33	-366.896	1378.95	1017.69	-224.692	1389.027	1015.499	-310.116	1452.448	475.991	-77.04	1442.163	463.152	-413.973	1425.138	479.039	-186.372	1430.87	465.105	-303.929	1391.364	71.391	-91.224	1365.177	74.447	-399.693	1415.917	83.498	-158.221	1391.141	83.723	-337.119	1342.767	42.602	-143.998	1317.597	42.92	-352.212	1484.845	1369.86	-237.98	1567.161	1206.241	-248.534	1371.636	1436.075	-242.545	1493.52	1358.404	-185.489	1508.719	1365.175	-292.773	1525.639	39.31	-99.405	1500.629	41.253	-401.746	1506.184	591.538	-12.517	1596.705	553.472	-342.44	1522.72	652.428	-84.2	1537.423	619.483	-383.102	1512.666	563.71	-99.656	1512.335	535.618	-387.075	1418.035	205.596	-6.455	1407.079	211.51	-479.938	1406.547	172.311	-79.579	1386.22	174.044	-410.927
	97	1.825	1472.25	881.989	-254.414	1468.365	880.749	-179.31	1476.134	883.228	-329.518	1443.6	470.267	-134.572	1434.272	460.277	-356.726	1406.178	69.381	-128.391	1382.913	71.386	-365.113	1565.49	961.266	-248.283	1559.347	959.306	-129.524	1571.632	963.226	-367.042	1378.93	1017.734	-224.719	1388.942	1015.521	-310.113	1452.438	476.006	-77.029	1442.275	463.176	-414.098	1425.077	479.049	-186.315	1430.847	465.507	-303.186	1391.423	71.331	-91.263	1365.154	74.477	-399.697	1415.937	83.478	-158.248	1391.136	83.783	-337.117	1342.745	42.615	-143.972	1317.603	42.922	-352.233	1484.723	1369.869	-238.128	1567.016	1206.23	-248.546	1371.67	1435.993	-242.564	1493.275	1358.394	-185.711	1508.72	1365.195	-292.773	1525.656	39.35	-99.313	1500.656	41.259	-401.733	1506.318	591.501	-12.644	1596.75	553.439	-342.407	1522.68	652.421	-84.126	1537.417	619.459	-383.043	1512.668	563.701	-99.65	1512.19	535.736	-386.747	1418.056	205.608	-6.417	1407.094	211.5	-479.932	1406.357	172.281	-79.549	1386.258	173.992	-410.915
	98	1.83333	1472.31	881.942	-254.542	1468.387	880.714	-179.44	1476.233	883.171	-329.645	1443.589	470.257	-134.547	1434.399	460.292	-356.823	1406.244	69.334	-128.446	1382.902	71.399	-365.13	1565.576	961.186	-248.374	1559.368	959.242	-129.546	1571.783	963.13	-367.201	1378.921	1017.772	-224.728	1388.872	1015.533	-310.098	1452.436	476.016	-77.007	1442.372	463.191	-414.199	1425.241	478.935	-186.257	1430.675	466.23	-302.123	1391.493	71.273	-91.316	1365.126	74.491	-399.705	1415.946	83.453	-158.302	1391.164	83.876	-337.137	1342.733	42.612	-143.944	1317.605	42.911	-352.242	1484.669	1369.891	-238.179	1566.876	1206.196	-248.4	1371.714	1436.015	-242.55	1493.172	1358.451	-185.79	1508.708	1365.16	-292.754	1525.684	39.403	-99.223	1500.678	41.255	-401.72	1506.476	591.449	-12.768	1596.801	553.404	-342.372	1522.665	652.403	-84.11	1537.411	619.386	-382.99	1512.78	563.723	-99.641	1511.927	536.005	-386.291	1418.057	205.614	-6.421	1407.102	211.486	-479.93	1406.446	172.281	-79.596	1386.296	173.94	-410.903
	99	1.84167	1472.383	881.911	-254.669	1468.426	880.696	-179.568	1476.341	883.125	-329.77	1443.59	470.237	-134.535	1434.508	460.311	-356.89	1406.292	69.313	-128.49	1382.895	71.391	-365.144	1565.67	961.128	-248.472	1559.405	959.206	-129.589	1571.935	963.05	-367.356	1378.934	1017.798	-224.716	1388.824	1015.56	-310.045	1452.441	476.014	-76.998	1442.457	463.206	-414.27	1425.405	478.755	-186.125	1430.461	466.644	-301.611	1391.543	71.245	-91.359	1365.103	74.485	-399.711	1415.942	83.409	-158.376	1391.183	83.834	-337.171	1342.73	42.599	-143.917	1317.606	42.906	-352.243	1484.657	1369.912	-238.203	1566.872	1206.209	-248.233	1371.716	1436.003	-242.559	1493.119	1358.513	-185.798	1508.738	1365.138	-292.754	1525.713	39.446	-99.167	1500.689	41.239	-401.713	1506.638	591.395	-12.873	1596.857	553.364	-342.326	1522.673	652.468	-84.192	1537.47	619.201	-382.97	1512.9	563.709	-99.66	1511.795	536.139	-386.063	1418.037	205.611	-6.457	1407.104	211.467	-479.931	1406.728	172.31	-79.593	1386.296	173.94	-410.903
	100	1.85	1472.484	881.897	-254.78	1468.505	880.703	-179.68	1476.463	883.091	-329.879	1443.605	470.21	-134.549	1434.603	460.338	-356.932	1406.307	69.336	-128.516	1382.897	71.357	-365.154	1565.778	961.105	-248.577	1559.478	959.214	-129.661	1572.079	962.996	-367.493	1378.968	1017.805	-224.709	1388.773	1015.605	-309.992	1452.453	475.999	-77.013	1442.531	463.225	-414.315	1425.058	478.782	-185.954	1430.312	466.351	-302.195	1391.555	71.267	-91.386	1365.094	74.454	-399.714	1415.941	83.431	-158.385	1391.221	83.702	-337.216	1342.733	42.585	-143.897	1317.608	42.911	-352.243	1484.688	1369.898	-238.22	1566.952	1206.219	-248.234	1371.711	1435.971	-242.622	1493.151	1358.506	-185.823	1508.773	1365.128	-292.761	1525.74	39.482	-99.136	1500.691	41.219	-401.71	1506.792	591.349	-12.953	1596.919	553.321	-342.269	1522.694	652.5	-84.223	1537.589	618.971	-382.989	1512.809	563.587	-99.707	1511.927	536.005	-386.291	1418.011	205.606	-6.507	1407.094	211.453	-479.934	1406.728	172.31	-79.593	1386.316	173.915	-410.897
	101	1.85833	1472.625	881.898	-254.86	1468.639	880.733	-179.76	1476.61	883.062	-329.96	1443.63	470.187	-134.588	1434.662	460.358	-356.942	1406.296	69.4	-128.532	1382.913	71.312	-365.16	1565.906	961.123	-248.682	1559.595	959.279	-129.766	1572.216	962.967	-367.597	1379.02	1017.788	-224.734	1388.705	1015.654	-309.971	1452.472	475.979	-77.051	1442.575	463.236	-414.328	1424.716	478.73	-185.722	1430.327	465.627	-303.313	1391.54	71.335	-91.403	1365.102	74.411	-399.716	1415.952	83.498	-158.339	1391.21	83.566	-337.22	1342.742	42.573	-143.891	1317.617	42.919	-352.245	1484.703	1369.875	-238.228	1566.955	1206.19	-248.234	1371.712	1435.972	-242.678	1493.186	1358.495	-185.829	1508.767	1365.091	-292.78	1525.746	39.513	-99.123	1500.697	41.211	-401.707	1506.922	591.321	-13.002	1596.982	553.277	-342.207	1522.609	652.497	-84.273	1537.649	618.826	-383.024	1512.692	563.534	-99.732	1512.19	535.736	-386.747	1417.981	205.599	-6.57	1407.072	211.455	-479.937	1406.695	172.279	-79.639	1386.47	173.859	-410.869
	102	1.86667	1472.798	881.905	-254.913	1468.813	880.78	-179.813	1476.782	883.031	-330.014	1443.656	470.176	-134.646	1434.694	460.371	-356.93	1406.262	69.484	-128.529	1382.954	71.278	-365.159	1566.045	961.174	-248.778	1559.737	959.393	-129.9	1572.352	962.955	-367.656	1379.079	1017.752	-224.787	1388.625	1015.686	-309.983	1452.493	475.964	-77.108	1442.595	463.239	-414.318	1424.775	478.635	-185.681	1430.362	465.272	-303.829	1391.503	71.428	-91.403	1365.137	74.378	-399.713	1415.957	83.528	-158.315	1391.026	83.396	-337.184	1342.744	42.571	-143.899	1317.635	42.931	-352.249	1484.705	1369.898	-238.291	1567.073	1206.274	-248.354	1371.673	1435.91	-242.7	1493.183	1358.499	-185.847	1508.785	1365.154	-292.891	1525.733	39.526	-99.134	1500.694	41.21	-401.7	1507.01	591.309	-13.017	1597.034	553.246	-342.147	1522.522	652.553	-84.399	1537.623	618.747	-383.105	1512.731	563.619	-99.819	1512.321	535.602	-386.975	1417.939	205.591	-6.631	1407.046	211.471	-479.942	1406.882	172.229	-79.714	1386.615	173.861	-410.83
	103	1.875	1472.985	881.917	-254.955	1468.999	880.837	-179.853	1476.972	882.998	-330.056	1443.678	470.179	-134.72	1434.722	460.387	-356.907	1406.202	69.57	-128.499	1383.015	71.26	-365.155	1566.186	961.245	-248.866	1559.879	959.535	-130.052	1572.492	962.954	-367.681	1379.13	1017.721	-224.849	1388.528	1015.696	-310.026	1452.516	475.958	-77.181	1442.608	463.246	-414.297	1425.18	478.659	-185.876	1430.311	465.737	-303.192	1391.443	71.527	-91.373	1365.189	74.361	-399.704	1415.904	83.519	-158.338	1390.795	83.342	-337.147	1342.728	42.583	-143.902	1317.655	42.946	-352.248	1484.683	1369.931	-238.345	1567.315	1206.444	-248.461	1371.558	1435.768	-242.819	1493.185	1358.533	-185.892	1508.765	1365.242	-292.963	1525.722	39.526	-99.159	1500.68	41.215	-401.693	1507.048	591.314	-13.007	1597.067	553.226	-342.098	1522.597	652.72	-84.515	1537.561	618.772	-383.22	1512.934	563.765	-99.931	1512.19	535.736	-386.747	1417.89	205.577	-6.687	1407.02	211.488	-479.954	1406.972	172.164	-79.813	1386.586	173.944	-410.826
	104	1.88333	1473.167	881.932	-254.989	1469.176	880.893	-179.888	1477.159	882.97	-330.091	1443.694	470.193	-134.799	1434.739	460.404	-356.896	1406.129	69.643	-128.448	1383.072	71.25	-365.151	1566.322	961.316	-248.94	1560.01	959.674	-130.196	1572.634	962.958	-367.685	1379.176	1017.71	-224.925	1388.42	1015.697	-310.08	1452.538	475.961	-77.26	1442.617	463.254	-414.288	1425.508	478.684	-185.928	1430.19	466.639	-302.009	1391.376	71.615	-91.32	1365.242	74.35	-399.698	1415.806	83.523	-158.355	1390.776	83.492	-337.127	1342.697	42.604	-143.893	1317.674	42.952	-352.242	1484.633	1369.948	-238.364	1567.45	1206.547	-248.362	1371.406	1435.685	-243.008	1493.16	1358.602	-185.941	1508.708	1365.241	-292.943	1525.717	39.529	-99.178	1500.672	41.232	-401.693	1507.04	591.332	-12.993	1597.081	553.207	-342.064	1522.672	652.872	-84.572	1537.533	618.864	-383.316	1513.092	563.929	-99.928	1511.927	536.005	-386.291	1417.859	205.565	-6.733	1407	211.505	-479.973	1406.88	172.151	-79.825	1386.616	174.012	-410.849
	105	1.89167	1473.311	881.937	-255.028	1469.301	880.929	-179.927	1477.321	882.945	-330.129	1443.702	470.213	-134.862	1434.744	460.412	-356.918	1406.062	69.692	-128.395	1383.113	71.241	-365.146	1566.427	961.367	-248.991	1560.091	959.774	-130.315	1572.763	962.959	-367.667	1379.224	1017.698	-225.029	1388.326	1015.688	-310.141	1452.558	475.974	-77.324	1442.628	463.256	-414.309	1425.738	478.651	-185.947	1430.084	467.015	-301.664	1391.317	71.677	-91.265	1365.287	74.337	-399.695	1415.782	83.549	-158.321	1391.033	83.687	-337.175	1342.663	42.628	-143.886	1317.686	42.944	-352.235	1484.619	1369.973	-238.385	1567.444	1206.572	-248.313	1371.299	1435.768	-243.146	1493.131	1358.642	-185.962	1508.712	1365.252	-292.949	1525.712	39.535	-99.188	1500.666	41.25	-401.703	1507.006	591.353	-12.991	1597.091	553.187	-342.041	1522.64	652.942	-84.647	1537.566	618.903	-383.333	1513.177	564.108	-99.929	1511.84	536.158	-386.151	1417.844	205.566	-6.763	1406.992	211.525	-479.994	1406.669	172.186	-79.724	1386.549	174.058	-410.883
	106	1.9	1473.363	881.936	-255.059	1469.326	880.936	-179.96	1477.399	882.935	-330.159	1443.706	470.235	-134.892	1434.725	460.409	-356.938	1406.017	69.709	-128.355	1383.128	71.232	-365.142	1566.455	961.392	-248.998	1560.079	959.813	-130.383	1572.831	962.971	-367.612	1379.263	1017.679	-225.126	1388.294	1015.66	-310.196	1452.572	475.995	-77.356	1442.625	463.249	-414.328	1425.972	478.61	-186.045	1430.03	466.542	-302.545	1391.279	71.702	-91.223	1365.311	74.323	-399.697	1415.842	83.539	-158.279	1391.298	83.73	-337.248	1342.642	42.648	-143.895	1317.69	42.928	-352.228	1484.644	1369.991	-238.441	1567.457	1206.584	-248.39	1371.292	1435.835	-243.32	1493.145	1358.647	-186.011	1508.746	1365.28	-293.011	1525.708	39.531	-99.204	1500.652	41.256	-401.724	1506.948	591.371	-12.979	1597.097	553.179	-342.035	1522.617	652.994	-84.744	1537.588	618.947	-383.297	1513.256	564.23	-99.976	1511.947	536.041	-386.509	1417.835	205.582	-6.781	1406.996	211.542	-480.01	1406.612	172.217	-79.631	1386.327	174.053	-410.914
